<?xml version="1.0" encoding="utf-8"?>
<!-- Generator: Adobe Illustrator 19.2.1, SVG Export Plug-In . SVG Version: 6.00 Build 0)  -->
<svg version="1.1" id="Layer_1" xmlns="http://www.w3.org/2000/svg" xmlns:xlink="http://www.w3.org/1999/xlink" x="0px" y="0px"
	 viewBox="0 0 150 30" style="enable-background:new 0 0 150 30;" xml:space="preserve">
<style type="text/css">
	.st0{fill:#FFFFFF;}
</style>
<g>
	<g>
		<path class="st0" d="M46.8,8.2c-1.2-1.2-2.9-1.6-4.5-1.6c-2.9,0-5.8,1.5-5.8,4.8c0,5.6,7.5,3.7,7.5,7.1c0,1.4-1.5,2.2-2.8,2.2
			c-1.2,0-2.4-0.6-3.1-1.6L35.9,21c1.3,1.5,3.2,2.1,5.2,2.1c3.1,0,5.8-1.6,5.8-5c0-5.6-7.5-3.8-7.5-7c0-1.4,1.3-2,2.6-2
			c1.1,0,2.2,0.4,2.8,1.2L46.8,8.2z"/>
		<path class="st0" d="M47.9,14.4v4.9c0,2.5,0.7,3.8,3.5,3.8c0.6,0,1.6-0.1,2.1-0.4v-2.3c-0.3,0.2-1,0.3-1.5,0.3
			c-1.2,0-1.5-0.7-1.5-1.7v-4.7h2.9v-2.3h-2.9V8.6l-2.7,0.8v2.7h0L47.9,14.4L47.9,14.4z M64.8,12.1h-2.7v5.9c0,1.4-0.7,2.7-2.5,2.7
			c-1.9,0-2-2-2-3.1v-5.4h-2.8l0.1,6.8c0,2.2,1,4.2,3.9,4.2c1.8,0,2.8-0.9,3.3-2h0v1.7h2.5V12.1z M75.2,22.8h2.5V6.5L75,7.4v6H75
			c-0.6-0.7-1.6-1.6-3.6-1.6c-3.1,0-5.2,2.5-5.2,5.6c0,3.2,2,5.6,5.3,5.6c1.5,0,2.9-0.6,3.7-1.9h0V22.8z M68.8,17.4
			c0-1.7,1.2-3.2,3.2-3.2c2,0,3.1,1.5,3.1,3.2c0,1.7-1.2,3.2-3.1,3.2C70,20.7,68.8,19.1,68.8,17.4 M83.2,22.9l-0.5,1.3
			c-0.4,1.1-0.8,1.6-2.1,1.6c-0.5,0-0.9-0.1-1.4-0.3l-0.3,2.4c0.7,0.2,1.4,0.3,2.1,0.3c2.4,0,3.3-1,4.1-3.1l5.1-13h-2.8l-2.7,7.4h0
			l-3-7.4h-2.9L83.2,22.9z M107.3,22.8h2.7v-5.7c0-0.6,0.4-2.7,2.9-2.7c0.4,0,0.8,0.1,1.3,0.2V12c-0.3-0.1-0.6-0.2-1-0.2
			c-1.4,0-2.6,0.7-3.2,2h0v-1.7h-2.7V22.8z M114.1,17.4c0,3.4,2.6,5.6,5.8,5.6c3.2,0,5.8-2.3,5.8-5.6c0-3.4-2.6-5.6-5.8-5.6
			C116.7,11.8,114.1,14.1,114.1,17.4 M116.8,17.4c0-1.7,1.2-3.2,3.1-3.2c2,0,3.2,1.5,3.2,3.2c0,1.7-1.2,3.2-3.2,3.2
			C118,20.7,116.8,19.1,116.8,17.4 M136.7,12.1H134v5.9c0,1.4-0.7,2.7-2.5,2.7c-1.9,0-2-2-2-3.1v-5.4h-2.7v6.8c0,2.2,1,4.2,3.9,4.2
			c1.8,0,2.8-0.9,3.3-2h0v1.7h2.5V12.1z M138.4,28.2l2.7-0.9v-5.9h0.1c0.6,0.7,1.6,1.6,3.6,1.6c3.1,0,5.2-2.5,5.2-5.6
			c0-3.2-2-5.6-5.3-5.6c-1.5,0-2.9,0.6-3.7,1.9h0v-1.6h-2.5V28.2z M147.3,17.4c0,1.7-1.2,3.2-3.2,3.2c-2,0-3.1-1.5-3.1-3.2
			c0-1.7,1.2-3.2,3.1-3.2C146.1,14.2,147.3,15.8,147.3,17.4"/>
		<path class="st0" d="M105.6,13.6h-6.1v2.5h3.2v3.7c-1,0.6-2.3,0.8-3.7,0.8c-3.3,0-5.4-2.5-5.4-5.9c0-3.2,2.2-5.7,5.4-5.7
			c1.6,0,3.1,0.6,4.1,1.5l2.1-2.1c-1.7-1.5-3.8-2-6.2-2c-4.9,0-8.4,3.3-8.4,8.4c0,4.9,3.5,8.2,8.4,8.2c2.4,0,4.6-0.5,6.6-1.6V13.6z"
			/>
	</g>
	<g>
		<path class="st0" d="M3.5,6.2l2.6,2.3c0.7-1.9,3.2-6,11.5-7.6c-0.6-0.1-1.2-0.2-1.9-0.3c0,0-0.1,0-0.1,0c-0.2,0-0.4,0-0.5,0
			c0,0,0,0,0,0c-0.1,0-0.3,0-0.4,0c-0.1,0-0.2,0-0.3,0c0,0-0.1,0-0.1,0c0,0,0,0,0,0c0,0,0,0,0,0c-0.1,0-0.1,0-0.2,0
			c-0.1,0-0.2,0-0.3,0c-0.2,0-0.3,0-0.5,0c-0.1,0-0.2,0-0.2,0c-0.2,0-0.3,0-0.5,0.1c-0.1,0-0.1,0-0.2,0c-0.2,0-0.4,0.1-0.6,0.1
			c0,0,0,0-0.1,0c-0.2,0-0.4,0.1-0.6,0.1c0,0-0.1,0-0.1,0c-0.2,0-0.4,0.1-0.6,0.1c-0.1,0-0.2,0-0.2,0.1c-0.1,0-0.3,0.1-0.4,0.1
			c-0.1,0-0.2,0.1-0.4,0.1c-0.1,0-0.2,0.1-0.3,0.1C8.9,1.6,8.8,1.7,8.6,1.8c-0.1,0-0.1,0-0.2,0.1C8.2,1.9,8,2,7.8,2.1c0,0,0,0,0,0
			c0,0,0.1,0,0.1,0C7.7,2.2,7.6,2.3,7.4,2.4c0.1-0.1,0.2-0.1,0.4-0.2c0,0,0,0,0,0c-0.3,0.2-0.7,0.4-1,0.6C7,2.6,7.2,2.5,7.4,2.4
			C7.2,2.5,7,2.6,6.8,2.7C6,3.3,5.2,3.8,4.6,4.5C4.5,4.5,4.4,4.6,4.3,4.7C4.2,4.8,4.2,4.8,4.1,4.9C4,5,3.9,5.1,3.8,5.2
			C3.8,5.3,3.7,5.4,3.6,5.4C3.5,5.5,3.5,5.6,3.4,5.6C3.3,5.8,3.3,6.1,3.5,6.2z"/>
	</g>
	<path class="st0" d="M11.8,28.8l0.7-3.2c-2.2,0.2-6.7-0.4-11.8-6.1c0.2,0.8,0.6,1.5,0.9,2.2l0,0c0,0,0-0.1,0-0.1
		c0.1,0.1,0.1,0.2,0.2,0.3c0-0.1-0.1-0.1-0.1-0.2c0,0,0,0,0,0c0.2,0.4,0.4,0.7,0.6,1c-0.1-0.2-0.3-0.4-0.4-0.6
		C3,24.1,4.5,25.8,6.4,27c0,0,0,0,0,0c0.1,0.1,0.3,0.2,0.4,0.3c0.1,0.1,0.2,0.1,0.3,0.2c-0.1,0-0.1-0.1-0.2-0.1c0,0,0,0,0,0
		c0.1,0,0.1,0.1,0.2,0.1c0,0,0.1,0,0.1,0.1c0.2,0.1,0.4,0.2,0.6,0.3c0.8,0.4,1.6,0.7,2.4,1c0.1,0,0.1,0,0.2,0.1c0,0,0.1,0,0.1,0
		c0.2,0.1,0.4,0.1,0.7,0.2c0,0,0,0,0.1,0C11.5,29.2,11.7,29,11.8,28.8z"/>
	<path class="st0" d="M29,15.1c0-0.2,0-0.4,0-0.5c0,0.1,0,0.2,0,0.4c0,0,0,0,0,0c0-0.1,0-0.2,0-0.3c0,0,0-0.1,0-0.1
		c0-0.2,0-0.4,0-0.7c0,0.2,0,0.4,0,0.7c0-0.2,0-0.5,0-0.7c-0.1-0.9-0.2-1.8-0.5-2.7c0,0,0-0.1,0-0.1l0,0c0-0.1-0.1-0.3-0.1-0.4
		c-0.1-0.2-0.3-0.3-0.5-0.3l-3.1,1c1.3,1.9,2.9,5.9,0.9,13c0.4-0.5,0.8-1,1.2-1.6l0,0c0,0,0,0.1-0.1,0.1c0.1-0.1,0.1-0.2,0.2-0.3
		c0,0.1-0.1,0.1-0.1,0.2v0c0.1-0.2,0.3-0.5,0.4-0.7c0-0.1,0.1-0.2,0.1-0.2c0.7-1.2,1.1-2.6,1.4-4c0,0,0,0,0-0.1
		c0-0.2,0.1-0.4,0.1-0.6c0-0.2,0-0.3,0.1-0.5c0-0.1,0-0.2,0-0.2c0-0.2,0-0.4,0-0.6c0,0,0-0.1,0-0.1C29,15.5,29,15.3,29,15.1
		C29,15.1,29,15.1,29,15.1C29,15.1,29,15.1,29,15.1z"/>
	<path class="st0" d="M18.9,1.2l-1.1,0.2C9.7,3,7.3,7,6.7,8.7L6.6,8.9l2.6,2.2c0.2,0.2,0.5,0.1,0.6,0c3.4-4,9.5-4.5,13.6-1.1
		c0,0,0.6,0.4,1.3,1.4l3.1-1c0.2-0.1,0.5,0,0.5,0.3C26.9,6.1,23.3,2.6,18.9,1.2z"/>
	<path class="st0" d="M25,24.2c2-6.9,0.3-10.8-0.8-12.5l-0.1-0.1l-3.5,1.1c-0.2,0.1-0.4,0.3-0.3,0.5c1.6,5.1-1.2,10.5-6.3,12.1
		c0,0-0.6,0.2-1.6,0.3l-0.7,3.2c-0.1,0.2-0.3,0.4-0.5,0.3c4.8,1.1,9.9-0.3,13.4-3.9L25,24.2z"/>
	<path class="st0" d="M5.4,23.6c-0.1-0.1-0.2-0.1-0.3-0.2C5.2,23.4,5.3,23.5,5.4,23.6z"/>
	<path class="st0" d="M4.6,23c-0.1-0.1-0.2-0.2-0.4-0.3C4.4,22.9,4.5,22.9,4.6,23z"/>
	<path class="st0" d="M3.7,22.4c-0.1-0.1-0.2-0.2-0.4-0.3C3.5,22.2,3.6,22.3,3.7,22.4z"/>
	<path class="st0" d="M2.8,21.6c-0.1-0.1-0.2-0.2-0.3-0.3C2.6,21.4,2.7,21.5,2.8,21.6z"/>
	<path class="st0" d="M1.6,20.5c0.1,0.1,0.2,0.2,0.3,0.3C1.8,20.7,1.7,20.6,1.6,20.5z"/>
	<path class="st0" d="M11.5,25.6c0.1,0,0.1,0,0.2,0C11.6,25.6,11.5,25.6,11.5,25.6z"/>
	<path class="st0" d="M7,24.4c-0.1,0-0.2-0.1-0.3-0.1C6.8,24.3,6.9,24.4,7,24.4z"/>
	<path class="st0" d="M6.2,24C6.1,24,6,23.9,5.9,23.9C6,23.9,6.1,24,6.2,24z"/>
	<path class="st0" d="M7.7,24.8c-0.1,0-0.1-0.1-0.2-0.1C7.6,24.7,7.6,24.7,7.7,24.8z"/>
	<path class="st0" d="M10.6,25.5c-0.1,0-0.2,0-0.2,0C10.4,25.5,10.5,25.5,10.6,25.5z"/>
	<path class="st0" d="M11.2,25.6c-0.1,0-0.1,0-0.2,0C11,25.6,11.1,25.6,11.2,25.6z"/>
	<path class="st0" d="M13.1,21c-5.2-1.2-8.4-6.4-7.3-11.5c0,0,0.1-0.4,0.3-1L3.5,6.2C3.3,6.1,3.3,5.8,3.4,5.6
		c-2.9,3.5-4.1,8.1-3.1,12.6l0.8,0.9C5.5,24,9.3,25,11.8,25c0.2,0,0.5,0,0.7,0l0.2,0l0.8-3.5C13.5,21.3,13.3,21.1,13.1,21z"/>
	<path class="st0" d="M12.1,25.6c0,0-0.1,0-0.1,0C12,25.6,12.1,25.6,12.1,25.6z"/>
	<path class="st0" d="M8.4,25L8.4,25L8.4,25z"/>
	<path class="st0" d="M9.3,25.3c-0.1,0-0.1,0-0.2-0.1C9.2,25.3,9.2,25.3,9.3,25.3z"/>
	<path class="st0" d="M10,25.4c-0.1,0-0.2,0-0.2,0C9.8,25.4,9.9,25.4,10,25.4z"/>
</g>
</svg>
